<mxfile host="app.diagrams.net" modified="2021-10-08T13:54:00.236Z" agent="5.0 (Macintosh; Intel Mac OS X 10_15_7) AppleWebKit/537.36 (KHTML, like Gecko) Chrome/94.0.4606.71 Safari/537.36" etag="4VpHa-rh1EPrtloXUYZn" version="15.4.1" type="github">
  <diagram id="rlI25ySNyv9VO5y2oulc" name="Page-1">
    <mxGraphModel dx="946" dy="614" grid="1" gridSize="10" guides="1" tooltips="1" connect="1" arrows="1" fold="1" page="1" pageScale="1" pageWidth="827" pageHeight="1169" math="0" shadow="0">
      <root>
        <mxCell id="0" />
        <mxCell id="1" parent="0" />
        <mxCell id="DUulgnfAPzLJu5N1t1AY-20" style="edgeStyle=orthogonalEdgeStyle;rounded=0;orthogonalLoop=1;jettySize=auto;html=1;" edge="1" parent="1" source="DUulgnfAPzLJu5N1t1AY-1" target="DUulgnfAPzLJu5N1t1AY-2">
          <mxGeometry relative="1" as="geometry" />
        </mxCell>
        <mxCell id="DUulgnfAPzLJu5N1t1AY-1" value="START" style="rounded=1;whiteSpace=wrap;html=1;" vertex="1" parent="1">
          <mxGeometry x="381" width="66" height="20" as="geometry" />
        </mxCell>
        <mxCell id="DUulgnfAPzLJu5N1t1AY-10" value="" style="edgeStyle=orthogonalEdgeStyle;rounded=0;orthogonalLoop=1;jettySize=auto;html=1;" edge="1" parent="1" source="DUulgnfAPzLJu5N1t1AY-2" target="DUulgnfAPzLJu5N1t1AY-7">
          <mxGeometry relative="1" as="geometry" />
        </mxCell>
        <mxCell id="DUulgnfAPzLJu5N1t1AY-2" value="WORD GUESS" style="rounded=1;whiteSpace=wrap;html=1;" vertex="1" parent="1">
          <mxGeometry x="354" y="40" width="120" height="60" as="geometry" />
        </mxCell>
        <mxCell id="DUulgnfAPzLJu5N1t1AY-7" value="Condition" style="rhombus;whiteSpace=wrap;html=1;fillColor=#ffffc0;strokeColor=#ff0000;" vertex="1" parent="1">
          <mxGeometry x="374" y="140" width="80" height="40" as="geometry" />
        </mxCell>
        <mxCell id="DUulgnfAPzLJu5N1t1AY-8" value="incorr" style="edgeStyle=orthogonalEdgeStyle;html=1;align=left;verticalAlign=bottom;endArrow=open;endSize=8;strokeColor=#ff0000;rounded=0;" edge="1" parent="1">
          <mxGeometry x="-0.8182" relative="1" as="geometry">
            <mxPoint x="490" y="240" as="targetPoint" />
            <mxPoint x="460" y="160" as="sourcePoint" />
            <Array as="points">
              <mxPoint x="490" y="160" />
            </Array>
            <mxPoint as="offset" />
          </mxGeometry>
        </mxCell>
        <mxCell id="DUulgnfAPzLJu5N1t1AY-9" value="correct" style="edgeStyle=orthogonalEdgeStyle;html=1;align=left;verticalAlign=top;endArrow=open;endSize=8;strokeColor=#ff0000;rounded=0;" edge="1" source="DUulgnfAPzLJu5N1t1AY-7" parent="1">
          <mxGeometry x="-0.4943" relative="1" as="geometry">
            <mxPoint x="280" y="240" as="targetPoint" />
            <Array as="points">
              <mxPoint x="280" y="160" />
            </Array>
            <mxPoint as="offset" />
          </mxGeometry>
        </mxCell>
        <mxCell id="DUulgnfAPzLJu5N1t1AY-16" style="edgeStyle=orthogonalEdgeStyle;rounded=0;orthogonalLoop=1;jettySize=auto;html=1;entryX=0.575;entryY=-0.067;entryDx=0;entryDy=0;entryPerimeter=0;" edge="1" parent="1" source="DUulgnfAPzLJu5N1t1AY-11" target="DUulgnfAPzLJu5N1t1AY-13">
          <mxGeometry relative="1" as="geometry">
            <Array as="points">
              <mxPoint x="270" y="345" />
              <mxPoint x="269" y="345" />
            </Array>
          </mxGeometry>
        </mxCell>
        <mxCell id="DUulgnfAPzLJu5N1t1AY-11" value="dont draw&lt;br&gt;hangman parts" style="rounded=0;whiteSpace=wrap;html=1;" vertex="1" parent="1">
          <mxGeometry x="210" y="240" width="120" height="60" as="geometry" />
        </mxCell>
        <mxCell id="DUulgnfAPzLJu5N1t1AY-15" style="edgeStyle=orthogonalEdgeStyle;rounded=0;orthogonalLoop=1;jettySize=auto;html=1;entryX=0.5;entryY=0;entryDx=0;entryDy=0;" edge="1" parent="1" source="DUulgnfAPzLJu5N1t1AY-12" target="DUulgnfAPzLJu5N1t1AY-14">
          <mxGeometry relative="1" as="geometry" />
        </mxCell>
        <mxCell id="DUulgnfAPzLJu5N1t1AY-12" value="&lt;span&gt;draw&lt;/span&gt;&lt;br&gt;&lt;span&gt;hangman parts&lt;/span&gt;" style="rounded=0;whiteSpace=wrap;html=1;" vertex="1" parent="1">
          <mxGeometry x="430" y="240" width="120" height="60" as="geometry" />
        </mxCell>
        <mxCell id="DUulgnfAPzLJu5N1t1AY-17" style="edgeStyle=orthogonalEdgeStyle;rounded=0;orthogonalLoop=1;jettySize=auto;html=1;" edge="1" parent="1" source="DUulgnfAPzLJu5N1t1AY-13">
          <mxGeometry relative="1" as="geometry">
            <mxPoint x="350" y="470" as="targetPoint" />
          </mxGeometry>
        </mxCell>
        <mxCell id="DUulgnfAPzLJu5N1t1AY-13" value="WORD GUESS" style="rounded=1;whiteSpace=wrap;html=1;" vertex="1" parent="1">
          <mxGeometry x="200" y="390" width="120" height="60" as="geometry" />
        </mxCell>
        <mxCell id="DUulgnfAPzLJu5N1t1AY-18" style="edgeStyle=orthogonalEdgeStyle;rounded=0;orthogonalLoop=1;jettySize=auto;html=1;" edge="1" parent="1" source="DUulgnfAPzLJu5N1t1AY-14">
          <mxGeometry relative="1" as="geometry">
            <mxPoint x="400" y="470" as="targetPoint" />
          </mxGeometry>
        </mxCell>
        <mxCell id="DUulgnfAPzLJu5N1t1AY-14" value="WORD GUESS" style="rounded=1;whiteSpace=wrap;html=1;" vertex="1" parent="1">
          <mxGeometry x="430" y="390" width="120" height="60" as="geometry" />
        </mxCell>
        <mxCell id="DUulgnfAPzLJu5N1t1AY-19" value="win / lose&lt;br&gt;(if hangman completed lose otherwise win)" style="rounded=1;whiteSpace=wrap;html=1;" vertex="1" parent="1">
          <mxGeometry x="320" y="470" width="120" height="60" as="geometry" />
        </mxCell>
      </root>
    </mxGraphModel>
  </diagram>
</mxfile>
